<?xml version="1.0"?>
<svg xmlns="http://www.w3.org/2000/svg" xmlns:xlink="http://www.w3.org/1999/xlink" xmlns:svgjs="http://svgjs.com/svgjs" version="1.1" width="512" height="512" x="0" y="0" viewBox="0 0 512 512" style="enable-background:new 0 0 512 512" xml:space="preserve"><g><g xmlns="http://www.w3.org/2000/svg" id="Solid"><path d="M288,160H224V96a64.023,64.023,0,0,1,32-55.39A64.023,64.023,0,0,1,288,96Zm64,0V96a63.953,63.953,0,0,0-78.054-62.426A79.871,79.871,0,0,1,304,96v64Zm80,16V436l46.227,34.67L448.76,176ZM208,96a79.871,79.871,0,0,1,30.054-62.426A63.953,63.953,0,0,0,160,96v64h48Zm208,80H399.24L369.773,470.67,416,436ZM88,276.944V360h48V276.944l-16-8V288H104V268.944ZM384,480h80l-40-30ZM304,176v18.165a16,16,0,1,1-16,0V176H160v18.165a16,16,0,1,1-16,0V176H120v75.056l27.578,13.789A8,8,0,0,1,152,272v96a8,8,0,0,1-8,8H80a8,8,0,0,1-8-8V272a8,8,0,0,1,4.422-7.155L104,251.056V176H63.24L32.84,480H352.76l30.4-304Z" fill="#ffffff" data-original="#000000" style=""/></g></g></svg>
